M48
; DRILL file {KiCad (5.1.8-0-10_14)} date Tuesday, December 22, 2020 at 03:40:23 PM
; FORMAT={-:-/ absolute / inch / decimal}
; #@! TF.CreationDate,2020-12-22T15:40:23-08:00
; #@! TF.GenerationSoftware,Kicad,Pcbnew,(5.1.8-0-10_14)
; #@! TF.FileFunction,Plated,1,4,PTH
FMAT,2
INCH
T1C0.0157
T2C0.0315
T3C0.0394
T4C0.0472
%
G90
G05
T1
X5.915Y-2.475
T2
X4.865Y-4.225
X5.265Y-4.225
X5.825Y-2.88
X6.225Y-2.88
X6.58Y-1.74
X6.58Y-1.9369
X4.865Y-1.76
X5.265Y-1.76
X5.925Y-3.04
X6.225Y-3.04
X6.58Y-4.09
X6.58Y-4.2869
X6.01Y-2.645
X6.1478Y-2.645
X6.79Y-2.035
X6.79Y-2.435
X5.05Y-2.55
X5.05Y-2.7469
X6.79Y-3.44
X6.79Y-3.84
X5.05Y-3.2031
X5.05Y-3.4
X6.3Y-1.74
X6.3Y-2.14
X5.4031Y-3.622
X5.6Y-3.622
X6.305Y-3.88
X6.305Y-4.28
X5.25Y-2.35
X5.25Y-2.75
X6.01Y-3.285
X6.1478Y-3.285
X5.4031Y-2.34
X5.6Y-2.34
X6.34Y-3.035
X6.74Y-3.035
X5.9031Y-3.625
X6.1Y-3.625
X5.25Y-3.2
X5.25Y-3.6
X6.34Y-2.885
X6.74Y-2.885
X5.9031Y-2.34
X6.1Y-2.34
T3
X6.5Y-3.3531
X6.5Y-3.55
X7.8Y-2.5
X7.8Y-2.6
X4.65Y-3.2
X4.65Y-3.3
X4.65Y-2.025
X4.65Y-2.125
X4.65Y-3.84
X4.65Y-3.94
X5.4024Y-3.8976
X5.4524Y-4.0976
X5.5024Y-3.8976
X5.5524Y-4.0976
X5.6024Y-3.8976
X5.6524Y-4.0976
X5.7024Y-3.8976
X5.7524Y-4.0976
X5.8024Y-3.8976
X5.8524Y-4.0976
X5.9024Y-3.8976
X5.9524Y-4.0976
X6.0024Y-3.8976
X6.0524Y-4.0976
X6.1024Y-3.8976
X4.65Y-2.65
X4.65Y-2.75
X5.05Y-2.0231
X5.05Y-2.22
X5.05Y-3.75
X5.05Y-3.9469
X6.92Y-3.9
X6.97Y-4.1
X7.02Y-3.9
X7.07Y-4.1
X7.12Y-3.9
X7.17Y-4.1
X7.22Y-3.9
X7.27Y-4.1
X7.32Y-3.9
X7.37Y-4.1
X7.42Y-3.9
X7.47Y-4.1
X7.52Y-3.9
X7.57Y-4.1
X7.62Y-3.9
X5.4Y-2.1
X5.45Y-1.9
X5.5Y-2.1
X5.55Y-1.9
X5.6Y-2.1
X5.65Y-1.9
X5.7Y-2.1
X5.75Y-1.9
X5.8Y-2.1
X5.85Y-1.9
X5.9Y-2.1
X5.95Y-1.9
X6.0Y-2.1
X6.05Y-1.9
X6.1Y-2.1
X6.92Y-2.085
X6.97Y-1.885
X7.02Y-2.085
X7.07Y-1.885
X7.12Y-2.085
X7.17Y-1.885
X7.22Y-2.085
X7.27Y-1.885
X7.32Y-2.085
X7.37Y-1.885
X7.42Y-2.085
X7.47Y-1.885
X7.52Y-2.085
X7.57Y-1.885
X7.62Y-2.085
X6.5Y-2.45
X6.5Y-2.6469
T4
X7.725Y-2.8366
X7.725Y-2.9744
X7.725Y-3.1122
X7.725Y-3.25
X7.22Y-2.435
X7.22Y-2.7303
X7.22Y-3.17
X7.22Y-3.4653
T0
M30
