G04 #@! TF.GenerationSoftware,KiCad,Pcbnew,(5.1.8-0-10_14)*
G04 #@! TF.CreationDate,2020-12-22T15:40:18-08:00*
G04 #@! TF.ProjectId,DualPedalBoardAmpSt,4475616c-5065-4646-916c-426f61726441,rev?*
G04 #@! TF.SameCoordinates,Original*
G04 #@! TF.FileFunction,Soldermask,Top*
G04 #@! TF.FilePolarity,Negative*
%FSLAX46Y46*%
G04 Gerber Fmt 4.6, Leading zero omitted, Abs format (unit mm)*
G04 Created by KiCad (PCBNEW (5.1.8-0-10_14)) date 2020-12-22 15:40:18*
%MOMM*%
%LPD*%
G01*
G04 APERTURE LIST*
%ADD10C,2.400000*%
%ADD11R,2.400000X2.400000*%
%ADD12O,1.800000X1.800000*%
%ADD13R,1.800000X1.800000*%
%ADD14O,1.600000X1.600000*%
%ADD15C,1.600000*%
%ADD16C,2.000000*%
%ADD17R,2.000000X2.000000*%
%ADD18R,1.600000X1.600000*%
%ADD19C,3.200000*%
%ADD20O,1.700000X1.700000*%
%ADD21R,1.700000X1.700000*%
G04 APERTURE END LIST*
D10*
X196215000Y-72050000D03*
X196215000Y-75550000D03*
X196215000Y-79050000D03*
D11*
X196215000Y-82550000D03*
D12*
X175768000Y-99060000D03*
X177038000Y-104140000D03*
X178308000Y-99060000D03*
X179578000Y-104140000D03*
X180848000Y-99060000D03*
X182118000Y-104140000D03*
X183388000Y-99060000D03*
X184658000Y-104140000D03*
X185928000Y-99060000D03*
X187198000Y-104140000D03*
X188468000Y-99060000D03*
X189738000Y-104140000D03*
X191008000Y-99060000D03*
X192278000Y-104140000D03*
D13*
X193548000Y-99060000D03*
D12*
X154940000Y-53340000D03*
X153670000Y-48260000D03*
X152400000Y-53340000D03*
X151130000Y-48260000D03*
X149860000Y-53340000D03*
X148590000Y-48260000D03*
X147320000Y-53340000D03*
X146050000Y-48260000D03*
X144780000Y-53340000D03*
X143510000Y-48260000D03*
X142240000Y-53340000D03*
X140970000Y-48260000D03*
X139700000Y-53340000D03*
X138430000Y-48260000D03*
D13*
X137160000Y-53340000D03*
D14*
X172466000Y-87376000D03*
D15*
X172466000Y-97536000D03*
D12*
X193548000Y-52959000D03*
X192278000Y-47879000D03*
X191008000Y-52959000D03*
X189738000Y-47879000D03*
X188468000Y-52959000D03*
X187198000Y-47879000D03*
X185928000Y-52959000D03*
X184658000Y-47879000D03*
X183388000Y-52959000D03*
X182118000Y-47879000D03*
X180848000Y-52959000D03*
X179578000Y-47879000D03*
X178308000Y-52959000D03*
X177038000Y-47879000D03*
D13*
X175768000Y-52959000D03*
D14*
X172466000Y-61849000D03*
D15*
X172466000Y-51689000D03*
X167132000Y-108886000D03*
X167132000Y-103886000D03*
X167132000Y-44196000D03*
X167132000Y-49196000D03*
D16*
X128270000Y-100250000D03*
D17*
X128270000Y-95250000D03*
D16*
X128270000Y-51388000D03*
D17*
X128270000Y-56388000D03*
D15*
X156154000Y-67183000D03*
D18*
X152654000Y-67183000D03*
D15*
X156154000Y-83439000D03*
D18*
X152654000Y-83439000D03*
D16*
X165100000Y-67230000D03*
D17*
X165100000Y-62230000D03*
D19*
X118110000Y-107315000D03*
X198755000Y-44450000D03*
X198755000Y-107315000D03*
X118110000Y-44577000D03*
D16*
X165100000Y-85170000D03*
D17*
X165100000Y-90170000D03*
D14*
X171196000Y-77089000D03*
D15*
X161036000Y-77089000D03*
X149940000Y-92075000D03*
X154940000Y-92075000D03*
D12*
X137220000Y-99000000D03*
X138490000Y-104080000D03*
X139760000Y-99000000D03*
X141030000Y-104080000D03*
X142300000Y-99000000D03*
X143570000Y-104080000D03*
X144840000Y-99000000D03*
X146110000Y-104080000D03*
X147380000Y-99000000D03*
X148650000Y-104080000D03*
X149920000Y-99000000D03*
X151190000Y-104080000D03*
X152460000Y-99000000D03*
X153730000Y-104080000D03*
D13*
X155000000Y-99000000D03*
D14*
X133731000Y-107315000D03*
D15*
X123571000Y-107315000D03*
D14*
X133350000Y-91440000D03*
D15*
X133350000Y-81280000D03*
D14*
X160147000Y-98552000D03*
D15*
X160147000Y-108712000D03*
D20*
X118110000Y-100076000D03*
D21*
X118110000Y-97536000D03*
D20*
X118110000Y-81280000D03*
D21*
X118110000Y-83820000D03*
D15*
X137240000Y-92000000D03*
X142240000Y-92000000D03*
X128270000Y-81360000D03*
X128270000Y-86360000D03*
D20*
X198120000Y-63500000D03*
D21*
X198120000Y-66040000D03*
D14*
X133731000Y-44704000D03*
D15*
X123571000Y-44704000D03*
D14*
X158115000Y-73152000D03*
D15*
X147955000Y-73152000D03*
D14*
X171196000Y-73279000D03*
D15*
X161036000Y-73279000D03*
D14*
X133350000Y-59690000D03*
D15*
X133350000Y-69850000D03*
D14*
X160020000Y-54356000D03*
D15*
X160020000Y-44196000D03*
D20*
X118110000Y-51435000D03*
D21*
X118110000Y-53975000D03*
D20*
X118110000Y-69850000D03*
D21*
X118110000Y-67310000D03*
D14*
X150495000Y-77216000D03*
D18*
X158115000Y-77216000D03*
D10*
X183388000Y-69349000D03*
D11*
X183388000Y-61849000D03*
D15*
X149940000Y-59436000D03*
X154940000Y-59436000D03*
D10*
X183388000Y-88018000D03*
D11*
X183388000Y-80518000D03*
D15*
X137240000Y-59436000D03*
X142240000Y-59436000D03*
X128270000Y-69770000D03*
X128270000Y-64770000D03*
M02*
